<svg width="24" height="24" viewBox="0 0 24 24" fill="none" xmlns="http://www.w3.org/2000/svg">
	<path d="M5.00671 19V14H7.00671V19H18V15.5H16L19 12.5L22 15.5H20V19C20 20.1 19.1 21 18 21H10.5H8.00671H7.00671C5.90214 21 5.00671 20.1046 5.00671 19Z" fill="#556068"/>
	<path fill-rule="evenodd" clip-rule="evenodd" d="M8.11702 2.87616L12 5.46482V9.67703L5.86054 12.1328L2 9.3446V5.32297L8.11702 2.87616ZM4 6.67703V8.32198L6.13946 9.86718L10 8.32297V6.53518L7.88298 5.12384L4 6.67703Z" fill="#556068"/>
	<path d="M16 7.5C16 9.15685 17.3431 10.5 19 10.5C20.6569 10.5 22 9.15685 22 7.5C22 5.84315 20.6569 4.5 19 4.5C17.3431 4.5 16 5.84315 16 7.5Z" fill="#556068"/>
</svg>
