<svg width="24" height="24" viewBox="0 0 24 24" fill="none" xmlns="http://www.w3.org/2000/svg">
<path fill-rule="evenodd" clip-rule="evenodd" d="M22 8V2H2V8H3V22H12V21H4V8H20V11H21V8H22ZM10 15V14H6V15H10ZM12 11V12H6V11H12ZM3 3H21V7H3V3Z" fill="#6E7B85"/>
<path fill-rule="evenodd" clip-rule="evenodd" d="M23 13V23H13V13H23ZM21.9636 14.0364H14.0364V21.9636H21.9636V14.0364ZM15.9727 18.6091V15.5818H14.9364V18.6091C14.9364 19.9909 15.7 20.8 16.9818 20.8C18.3 20.8 19.0727 19.9818 19.0727 18.6091V15.5818H18.0364V18.6091C18.0364 19.3909 17.7 19.8273 17.0091 19.8273C16.2909 19.8273 15.9727 19.3727 15.9727 18.6091ZM20.9273 16.6909V20.7545H19.8909V16.6909H20.9273ZM21.0364 15.5818C21.0364 15.2273 20.7545 14.9455 20.4091 14.9455C20.0545 14.9455 19.7727 15.2273 19.7727 15.5818C19.7818 15.9182 20.0545 16.1909 20.3909 16.2C20.7364 16.2091 21.0273 15.9364 21.0364 15.5818Z" fill="#FA4616"/>
</svg>
